<svg width="30" height="30" viewBox="0 0 30 30" fill="none" xmlns="http://www.w3.org/2000/svg">
<path fill-rule="evenodd" clip-rule="evenodd" d="M17.885 8.385H11.624C9.84008 8.385 8.38501 9.834 8.38501 11.624V17.885C8.38501 19.668 9.83411 21.123 11.624 21.123H17.885C19.6681 21.123 21.123 19.674 21.123 17.885V11.624C21.1171 9.834 19.6681 8.385 17.885 8.385ZM14.7511 18.94C12.4431 18.94 10.562 17.059 10.562 14.751C10.562 12.443 12.4431 10.562 14.7511 10.562C17.0591 10.562 18.9401 12.443 18.9401 14.751C18.9401 17.059 17.0591 18.94 14.7511 18.94ZM19.15 11.027C18.7571 11.027 18.442 10.712 18.442 10.319C18.442 9.926 18.7571 9.611 19.15 9.611C19.5431 9.611 19.858 9.926 19.858 10.319C19.858 10.712 19.5431 11.027 19.15 11.027Z" fill="#FCF7F8"/>
<path fill-rule="evenodd" clip-rule="evenodd" d="M14.7538 17.2953C16.1587 17.2953 17.2977 16.1563 17.2977 14.7514C17.2977 13.3464 16.1587 12.2074 14.7538 12.2074C13.3488 12.2074 12.2098 13.3464 12.2098 14.7514C12.2098 16.1563 13.3488 17.2953 14.7538 17.2953Z" fill="#FCF7F8"/>
<path fill-rule="evenodd" clip-rule="evenodd" d="M14.751 0C6.60193 0 0 6.602 0 14.751C0 22.9 6.60193 29.502 14.751 29.502C22.8999 29.502 29.502 22.9 29.502 14.751C29.502 6.602 22.8999 0 14.751 0ZM22.9459 17.885C22.9459 20.678 20.678 22.946 17.8849 22.946H11.6239C8.83092 22.946 6.56188 20.678 6.56188 17.885V11.624C6.56188 8.831 8.83092 6.562 11.6239 6.562H17.8849C20.678 6.562 22.9459 8.831 22.9459 11.624V17.885Z" fill="#FCF7F8"/>
</svg>
