<svg width="30" height="30" viewBox="0 0 30 30" fill="none" xmlns="http://www.w3.org/2000/svg">
<path fill-rule="evenodd" clip-rule="evenodd" d="M14.751 0C6.60401 0 0 6.604 0 14.751C0 22.898 6.604 29.502 14.751 29.502C22.8981 29.502 29.5021 22.898 29.5021 14.751C29.5021 6.604 22.8981 0 14.751 0ZM10.462 22.515H7.24402V12.148H10.462V22.515ZM8.85107 10.733C7.81604 10.737 6.97399 9.902 6.96997 8.868C6.96606 7.834 7.80102 6.991 8.83496 6.987C9.86902 6.983 10.71 7.817 10.7161 8.85C10.718 9.884 9.88403 10.726 8.85107 10.733ZM22.515 22.515H19.2991V17.468C19.2991 16.265 19.275 14.722 17.626 14.722C15.9761 14.722 15.6851 16.03 15.6851 17.381V22.515H12.48V12.148H15.568V13.561H15.613C16.042 12.746 17.092 11.886 18.658 11.886C21.915 11.886 22.515 14.033 22.515 16.82L22.515 22.515Z" fill="#FCF7F8"/>
</svg>
