<svg width="176" height="28" viewBox="0 0 176 28" fill="none" xmlns="http://www.w3.org/2000/svg">
<path fill-rule="evenodd" clip-rule="evenodd" d="M16.036 17.8659L14.608 22.2227H14.3516L12.8872 17.8293L6.69998 0.329102H0L10.5076 27.0187H18.452L28.9596 0.329102H22.2596L16.036 17.8659Z" fill="white"/>
<path fill-rule="evenodd" clip-rule="evenodd" d="M53.8187 3.661C52.5737 2.465 51.0787 1.556 49.3337 0.933C47.5877 0.311 45.6177 0 43.4207 0C41.2247 0 39.2527 0.311 37.5087 0.933C35.7627 1.556 34.2687 2.459 33.0237 3.643C31.7787 4.827 30.8267 6.26 30.1677 7.944C29.5087 9.628 29.1787 11.532 29.1787 13.656C29.1787 15.779 29.5087 17.683 30.1677 19.367C30.8267 21.051 31.7787 22.492 33.0237 23.687C34.2687 24.883 35.7627 25.792 37.5087 26.415C39.2527 27.037 41.2247 27.348 43.4207 27.348C45.6177 27.348 47.5817 27.037 49.3157 26.415C51.0477 25.792 52.5367 24.89 53.7817 23.705C55.0267 22.522 55.9787 21.082 56.6377 19.385C57.2967 17.689 57.6267 15.779 57.6267 13.656C57.6267 11.532 57.3027 9.635 56.6557 7.963C56.0087 6.291 55.0637 4.857 53.8187 3.661H53.8187ZM50.5047 18.452C49.8337 19.746 48.8997 20.721 47.7047 21.38C46.5077 22.039 45.0807 22.369 43.4207 22.369C42.1997 22.369 41.0967 22.186 40.1077 21.82C39.1187 21.454 38.2707 20.911 37.5627 20.191C36.8547 19.471 36.3117 18.561 35.9337 17.463C35.5547 16.365 35.3667 15.096 35.3667 13.656C35.3667 11.728 35.6957 10.123 36.3547 8.841C37.0137 7.56 37.9477 6.596 39.1557 5.949C40.3637 5.303 41.7857 4.979 43.4207 4.979C44.6407 4.979 45.7517 5.162 46.7527 5.528C47.7527 5.894 48.6017 6.443 49.2967 7.176C49.9927 7.908 50.5357 8.811 50.9267 9.885C51.3167 10.959 51.5117 12.216 51.5117 13.656C51.5117 15.559 51.1757 17.158 50.5047 18.452H50.5047Z" fill="white"/>
<path fill-rule="evenodd" clip-rule="evenodd" d="M80.2519 1.9951C78.2989 0.885102 75.8829 0.329102 73.0029 0.329102H60.9209V27.0191H73.0399C75.0899 27.0191 76.9259 26.7201 78.5499 26.1221C80.1719 25.5241 81.5519 24.6451 82.6859 23.4861C83.8219 22.3271 84.6869 20.9231 85.2859 19.2751C85.8839 17.6281 86.1829 15.7671 86.1829 13.6921C86.1829 11.0081 85.6819 8.6641 84.6819 6.6631C83.6809 4.6621 82.2039 3.1061 80.2519 1.9951H80.2519ZM79.5009 17.3901C79.1469 18.4641 78.6289 19.3491 77.9449 20.0441C77.2619 20.7401 76.4129 21.2591 75.4009 21.6001C74.3879 21.9421 73.2349 22.1131 71.9409 22.1131H66.9249V5.2351H71.9409C73.5519 5.2351 74.9619 5.5101 76.1699 6.0591C77.3779 6.6081 78.3239 7.4871 79.0069 8.6951C79.6899 9.9031 80.0319 11.5321 80.0319 13.5821C80.0319 15.0471 79.8549 16.3161 79.5009 17.3901H79.5009Z" fill="white"/>
<path fill-rule="evenodd" clip-rule="evenodd" d="M143.699 11.9531C144.578 10.8181 145.017 9.4091 145.017 7.7251C145.017 6.7731 144.889 5.9121 144.633 5.1441C144.376 4.3751 144.004 3.6921 143.516 3.0931C143.028 2.4951 142.418 1.9891 141.686 1.5741C140.954 1.1591 140.111 0.848102 139.16 0.640102C138.208 0.433102 137.146 0.329102 135.974 0.329102H120.927V27.0191H126.968V17.0971H134.29C135.339 17.0971 136.157 17.2251 136.743 17.4811C137.329 17.7381 137.744 18.1281 137.988 18.6531C138.232 19.1781 138.354 19.8311 138.354 20.6121V24.1261C138.354 24.7121 138.372 25.2491 138.409 25.7371C138.446 26.2261 138.537 26.6521 138.684 27.0191H144.798C144.602 26.5061 144.486 26.0181 144.45 25.5541C144.413 25.0911 144.395 24.6151 144.395 24.1261V19.6231C144.395 18.6231 144.242 17.7741 143.937 17.0791C143.632 16.3831 143.162 15.8221 142.528 15.3951C141.893 14.9681 141.087 14.6691 140.111 14.4981V14.2781C141.624 13.8631 142.821 13.0881 143.699 11.9531ZM137.823 11.4771C137.152 12.1971 135.962 12.5571 134.254 12.5571H126.968V5.1251H134.254C134.961 5.1251 135.59 5.1861 136.139 5.3081C136.688 5.4311 137.17 5.6321 137.585 5.9121C138 6.1931 138.311 6.5661 138.519 7.0291C138.726 7.4931 138.83 8.0541 138.83 8.7131C138.83 9.8361 138.494 10.7581 137.823 11.4771H137.823Z" fill="white"/>
<path fill-rule="evenodd" clip-rule="evenodd" d="M168.998 27.0191H175.441L165.3 0.329102H157.062L146.921 27.0191H153.328L155.233 21.6001H167.107L168.998 27.0191ZM156.842 17.0241L159.918 8.2741L161.053 4.7961H161.309L162.444 8.2371L165.51 17.0241H156.842Z" fill="white"/>
<path fill-rule="evenodd" clip-rule="evenodd" d="M110.511 18.452C109.839 19.746 108.906 20.721 107.71 21.38C106.514 22.039 105.086 22.369 103.427 22.369C102.206 22.369 101.102 22.186 100.113 21.82C99.1246 21.454 98.2766 20.911 97.5686 20.191C96.8606 19.471 96.3176 18.561 95.9396 17.463C95.5606 16.365 95.3716 15.096 95.3716 13.656C95.3716 11.728 95.7016 10.123 96.3606 8.841C97.0196 7.56 97.9526 6.596 99.1616 5.949C100.365 5.305 101.781 4.982 103.408 4.979V0C101.219 0.002 99.2536 0.313 97.5136 0.933C95.7686 1.556 94.2736 2.459 93.0286 3.643C91.7836 4.827 90.8316 6.26 90.1736 7.944C89.5136 9.628 89.1846 11.532 89.1846 13.656C89.1846 15.779 89.5136 17.683 90.1736 19.367C90.8316 21.051 91.7836 22.492 93.0286 23.687C94.2736 24.883 95.7686 25.792 97.5136 26.415C99.2586 27.037 101.23 27.348 103.427 27.348C105.623 27.348 107.588 27.037 109.321 26.415C111.054 25.792 112.543 24.89 113.788 23.705C115.032 22.522 115.984 21.082 116.643 19.385C117.3 17.694 117.63 15.79 117.632 13.674H111.517C111.515 15.569 111.18 17.162 110.511 18.452H110.511Z" fill="white"/>
<path fill-rule="evenodd" clip-rule="evenodd" d="M111.532 0H104.418V4.96733H111.532V12.6277H117.631V0H111.887L111.532 0Z" fill="white"/>
</svg>
