<svg width="45" height="45" viewBox="0 0 45 45" fill="none" xmlns="http://www.w3.org/2000/svg">
<path fill-rule="evenodd" clip-rule="evenodd" d="M1.39803 7.90918H22.686C23.327 10.8291 25.935 13.022 29.045 13.022C32.156 13.022 34.764 10.8291 35.405 7.90918H43.343C44.115 7.90918 44.741 7.2832 44.741 6.51123C44.741 5.73926 44.115 5.11328 43.343 5.11328H35.404C34.762 2.19433 32.15 0 29.045 0C25.939 0 23.329 2.19434 22.686 5.11328H1.39803C0.626 5.11328 2e-05 5.73926 2e-05 6.51123C2e-05 7.2832 0.626 7.90918 1.39803 7.90918ZM25.331 6.51513V6.49999C25.337 4.458 27.003 2.79638 29.045 2.79638C31.084 2.79638 32.751 4.45507 32.76 6.49609V6.51709C32.757 8.56201 31.092 10.2261 29.045 10.2261C27 10.2261 25.336 8.56396 25.331 6.52002V6.51513ZM43.343 36.876H35.404C34.761 33.957 32.15 31.7632 29.045 31.7632C25.939 31.7632 23.329 33.957 22.686 36.876H1.39802C0.62599 36.876 1e-05 37.5019 1e-05 38.2744C1e-05 39.0464 0.62599 39.6724 1.39802 39.6724H22.686C23.327 42.5923 25.935 44.7851 29.045 44.7851C32.156 44.7851 34.764 42.5923 35.405 39.6724H43.343C44.115 39.6724 44.741 39.0464 44.741 38.2744C44.741 37.5019 44.115 36.876 43.343 36.876ZM29.045 41.9883C27 41.9883 25.336 40.3271 25.331 38.2832V38.2773V38.2622C25.337 36.2202 27.003 34.5591 29.045 34.5591C31.084 34.5591 32.751 36.2183 32.76 38.2593V38.2803C32.757 40.3252 31.092 41.9883 29.045 41.9883V41.9883ZM43.343 20.9941H22.056C21.414 18.0742 18.806 15.8823 15.696 15.8823C12.586 15.8823 9.97797 18.0742 9.336 20.9941H1.39801C0.62598 20.9941 0 21.6201 0 22.3921C0 23.165 0.62598 23.791 1.39801 23.791H9.33697C9.97998 26.709 12.591 28.9033 15.696 28.9033C18.802 28.9033 21.413 26.71 22.055 23.791H43.343C44.115 23.791 44.741 23.165 44.741 22.3921C44.741 21.6201 44.115 20.9941 43.343 20.9941H43.343ZM19.41 22.3892V22.4043C19.404 24.4463 17.738 26.1069 15.696 26.1069C13.657 26.1069 11.99 24.4483 11.982 22.4072L11.981 22.3872C11.984 20.3413 13.65 18.6782 15.696 18.6782C17.741 18.6782 19.406 20.3394 19.41 22.3843V22.3892Z" fill="black"/>
</svg>
