<svg width="47" height="47" viewBox="0 0 47 47" fill="none" xmlns="http://www.w3.org/2000/svg">
<path fill-rule="evenodd" clip-rule="evenodd" d="M5.72998 22.689C7.73401 22.689 9.36499 21.0577 9.36499 19.0538C9.36499 18.481 9.23096 17.9381 8.99402 17.4547L15.896 12.0806C16.53 12.6187 17.35 12.9439 18.244 12.9439C19.73 12.9439 21.01 12.0479 21.573 10.7677L27.124 11.9337V11.9371C27.124 13.941 28.755 15.5719 30.759 15.5719C32.7629 15.5719 34.3941 13.941 34.3941 11.9371C34.3941 11.276 34.215 10.6549 33.905 10.1207L41.646 3.19686L41.3941 3.9327C41.261 4.32088 41.468 4.74374 41.8571 4.87704C42.246 5.01083 42.668 4.8038 42.801 4.41513L43.9771 0.984948C44.063 0.733968 44.0081 0.455648 43.834 0.255948C43.6591 0.0547776 43.391 -0.0370224 43.13 0.0137576L39.572 0.711028C39.169 0.790128 38.907 1.18076 38.986 1.58408C39.064 1.98691 39.455 2.2501 39.8581 2.17099L40.759 1.99472L32.914 9.01181C32.3101 8.56601 31.565 8.30185 30.7591 8.30185C29.273 8.30185 27.994 9.19785 27.431 10.4781L21.879 9.31308V9.30869C21.879 7.30478 20.2491 5.6749 18.245 5.6749C16.24 5.6749 14.61 7.30478 14.61 9.30869C14.61 9.88291 14.744 10.4249 14.981 10.9078L8.079 16.2828C7.44497 15.7437 6.62502 15.419 5.73 15.419C3.72597 15.419 2.09499 17.0489 2.09499 19.0538C2.09499 21.0577 3.72597 22.6891 5.73 22.6891L5.72998 22.689ZM30.759 9.79012C31.943 9.79012 32.906 10.753 32.906 11.9371C32.906 13.1207 31.943 14.0841 30.759 14.0841C29.575 14.0841 28.6119 13.1207 28.6119 11.9371C28.6119 10.753 29.575 9.79012 30.759 9.79012ZM18.245 7.1617C19.428 7.1617 20.392 8.12508 20.392 9.30867C20.392 10.4937 19.429 11.4571 18.245 11.4571C17.0601 11.4571 16.097 10.4937 16.097 9.30867C16.097 8.12508 17.0601 7.1617 18.245 7.1617ZM5.72998 16.9068C6.91394 16.9068 7.87695 17.8697 7.87695 19.0538C7.87695 20.2379 6.91394 21.2008 5.72998 21.2008C4.54602 21.2008 3.58301 20.2379 3.58301 19.0538C3.58301 17.8697 4.54602 16.9068 5.72998 16.9068ZM39.359 25.8761C35.004 21.5211 29.215 19.1226 23.056 19.1226C16.8979 19.1226 11.108 21.5211 6.75305 25.8761C2.39795 30.231 0 36.0211 0 42.1788C0 42.5899 0.33301 42.9229 0.74402 42.9229H9.06104C9.47205 42.9229 9.80506 42.5899 9.80506 42.1788C9.80506 34.8726 15.749 28.9278 23.056 28.9278C30.3631 28.9278 36.307 34.8726 36.307 42.1788C36.307 42.5899 36.64 42.9229 37.051 42.9229H45.369C45.7791 42.9229 46.1119 42.5899 46.1119 42.1788C46.1119 36.0211 43.714 30.231 39.359 25.8761H39.359ZM22.312 27.4591C20.171 27.566 18.1491 28.1329 16.342 29.0621L12.924 23.1427C15.741 21.6368 18.929 20.7398 22.312 20.6251V27.4591ZM23.8001 20.6251C27.183 20.7398 30.371 21.6368 33.188 23.1427L29.771 29.0621C27.963 28.1329 25.941 27.566 23.8001 27.4591L23.8001 20.6251ZM8.33606 41.4361H1.5C1.61499 38.0518 2.51501 34.8648 4.02002 32.0479L9.93897 35.4649C9.01001 37.272 8.443 39.294 8.33606 41.4361ZM10.684 34.1778L4.76599 30.7608C6.50598 27.984 8.85998 25.628 11.637 23.8878L15.0539 29.8067C13.3089 30.94 11.817 32.4317 10.6839 34.1778H10.684ZM31.058 29.8067L34.475 23.8878C37.252 25.628 39.606 27.984 41.3459 30.7608L35.428 34.1778C34.295 32.4317 32.803 30.94 31.058 29.8067H31.058ZM37.776 41.4361C37.6689 39.294 37.102 37.272 36.173 35.4649L42.092 32.0479C43.598 34.8648 44.497 38.0518 44.6119 41.4361H37.776ZM29.479 34.7047L25.261 38.9229C24.631 38.4957 23.8719 38.2447 23.056 38.2447C20.887 38.2447 19.1219 40.0098 19.1219 42.1788C19.1219 44.3487 20.887 46.1129 23.056 46.1129C25.225 46.1129 26.99 44.3477 26.99 42.1788C26.99 41.3629 26.74 40.6041 26.312 39.9747L30.531 35.7559C30.821 35.4659 30.821 34.9947 30.531 34.7047C30.24 34.4136 29.769 34.4136 29.479 34.7047H29.479ZM23.056 44.6261C21.707 44.6261 20.61 43.5279 20.61 42.1788C20.61 40.8297 21.707 39.733 23.056 39.733C24.405 39.733 25.5019 40.8297 25.5019 42.1788C25.5019 43.5279 24.405 44.6261 23.056 44.6261Z" fill="black"/>
</svg>
