<svg width="46" height="42" viewBox="0 0 46 42" fill="none" xmlns="http://www.w3.org/2000/svg">
<path fill-rule="evenodd" clip-rule="evenodd" d="M36.0889 0C30.9519 0 26.7729 4.18018 26.7729 9.31738C26.7729 15.9082 33.8619 23.0132 34.163 23.313C34.6769 23.8223 35.361 24.1021 36.0889 24.1021C36.8179 24.1021 37.5019 23.8223 38.0159 23.313C38.3169 23.0132 45.4059 15.9072 45.4059 9.31738C45.4059 4.18017 41.2269 0 36.0888 0H36.0889ZM36.9839 22.2729C36.7469 22.5083 36.429 22.6372 36.0889 22.6372C35.7489 22.6372 35.4319 22.5083 35.1949 22.2729C35.1249 22.2041 28.2379 15.2964 28.2379 9.31738C28.2379 4.9873 31.7599 1.46533 36.0889 1.46533C40.4189 1.46533 43.9409 4.9873 43.9409 9.31738C43.9409 15.2954 37.0529 22.2041 36.9839 22.2729Z" fill="black"/>
<path fill-rule="evenodd" clip-rule="evenodd" d="M36.089 4.38721C33.371 4.38721 31.1591 6.59912 31.1591 9.31739C31.1591 12.0352 33.371 14.2471 36.089 14.2471C38.808 14.2471 41.019 12.0352 41.019 9.31739C41.019 6.59913 38.808 4.38721 36.089 4.38721ZM36.089 12.7822C34.1791 12.7822 32.624 11.228 32.624 9.31739C32.624 7.40626 34.1791 5.85206 36.089 5.85206C38 5.85206 39.555 7.40626 39.555 9.31739C39.555 11.228 38 12.7822 36.089 12.7822Z" fill="black"/>
<path fill-rule="evenodd" clip-rule="evenodd" d="M36.061 24.626C35.6591 24.581 35.296 24.8711 35.251 25.272C35.041 27.1601 34.525 28.9463 33.7571 30.583H27.64C28.104 28.5522 28.369 26.3623 28.416 24.102H32.49C32.894 24.102 33.222 23.7739 33.222 23.3701C33.222 22.9653 32.894 22.6372 32.49 22.6372H28.416C28.3671 20.29 28.083 18.019 27.5861 15.9224C27.707 15.791 27.782 15.6162 27.782 15.4243C27.782 15.0972 27.5691 14.8213 27.2731 14.727C26.838 13.2051 26.285 11.791 25.6221 10.5293C24.889 9.13232 24.053 7.97997 23.1431 7.09325C23.916 7.31835 24.675 7.59716 25.417 7.93505C25.785 8.10204 26.219 7.93896 26.3871 7.57128C26.5541 7.20312 26.391 6.76903 26.0231 6.60107C23.626 5.51123 21.0651 4.95898 18.411 4.95898C11.2631 4.95898 5.05408 9.05322 2.005 15.02C1.97302 15.0684 1.94702 15.1211 1.927 15.1773C0.69409 17.646 0 20.4282 0 23.3701C0 26.311 0.69409 29.0942 1.927 31.563C1.94702 31.6182 1.97302 31.6714 2.005 31.7202C5.05407 37.686 11.2631 41.7813 18.411 41.7813C22.968 41.7813 27.3411 40.103 30.725 37.0562C34.083 34.0332 36.208 29.9063 36.707 25.4351C36.7521 25.0332 36.463 24.6714 36.061 24.626L36.061 24.626ZM26.1371 30.583H10.6851C10.198 28.5703 9.91907 26.3769 9.87 24.102H26.9511C26.902 26.3769 26.624 28.5703 26.1371 30.583ZM18.411 40.3164C16.217 40.3164 14.1171 38.6162 12.496 35.5303C11.943 34.4751 11.4711 33.3052 11.0851 32.0483H25.7371C25.3511 33.3052 24.879 34.4751 24.3251 35.5303C22.7051 38.6162 20.605 40.3164 18.411 40.3164ZM1.48109 24.102H8.40504C8.45204 26.3623 8.71705 28.5522 9.18104 30.583H3.07899C2.14308 28.602 1.58009 26.4111 1.48109 24.102ZM3.07899 16.1562H9.18104C8.71705 18.188 8.45204 20.3769 8.40504 22.6372H1.48109C1.58009 20.3281 2.14308 18.1382 3.07899 16.1562ZM9.87 22.6372C9.92005 20.3633 10.198 18.1704 10.6851 16.1562H26.1371C26.623 18.1704 26.902 20.3633 26.9511 22.6372H9.87ZM24.3251 11.209C24.879 12.2642 25.3511 13.4341 25.7371 14.6924H11.0851C11.4711 13.4341 11.943 12.2642 12.496 11.209C14.1171 8.12303 16.217 6.42333 18.411 6.42333C20.605 6.42333 22.7051 8.12304 24.3251 11.209ZM13.673 7.09813C12.765 7.98534 11.931 9.13524 11.2001 10.5293C10.542 11.7812 9.99207 13.1831 9.55799 14.6924H3.86109C6.03406 11.061 9.52698 8.30712 13.673 7.09813ZM3.86109 32.0483H9.55799C9.99207 33.5561 10.542 34.958 11.199 36.2109C11.931 37.605 12.765 38.7554 13.673 39.6411C9.52698 38.4321 6.03406 35.6792 3.86109 32.0483V32.0483ZM23.1421 39.6479C24.052 38.7602 24.8881 37.6084 25.6221 36.2109C26.28 34.958 26.829 33.5561 27.2631 32.0483H32.979C30.8 35.707 27.2891 38.4482 23.1421 39.6479Z" fill="black"/>
</svg>
