<svg width="47" height="47" viewBox="0 0 47 47" fill="none" xmlns="http://www.w3.org/2000/svg">
<path fill-rule="evenodd" clip-rule="evenodd" d="M18.825 37.6299C23.005 37.6299 27.066 36.2349 30.365 33.6661L42.808 46.1089C43.737 47.0069 45.218 46.981 46.116 46.0508C46.992 45.1451 46.992 43.7071 46.116 42.8008L33.673 30.357C40.048 22.1519 38.563 10.3321 30.357 3.95708C22.152 -2.41694 10.332 -0.933062 3.95701 7.273C-2.41698 15.479 -0.93297 27.2989 7.27302 33.6729C10.577 36.2388 14.641 37.6319 18.825 37.6299V37.6299ZM8.82703 8.81988C14.348 3.29791 23.301 3.29791 28.823 8.8189C34.345 14.3409 34.345 23.294 28.823 28.815C23.301 34.337 14.349 34.337 8.82703 28.816V28.815C3.30503 23.334 3.27201 14.4141 8.75403 8.89214L8.82703 8.81987V8.81988Z" fill="black"/>
</svg>
