<svg width="46" height="46" viewBox="0 0 46 46" fill="none" xmlns="http://www.w3.org/2000/svg">
<path fill-rule="evenodd" clip-rule="evenodd" d="M45.293 33.2359C45.293 32.0767 44.35 31.1328 43.192 31.1328H40.53C40.508 31.1328 40.507 31.1309 40.495 31.1128L40.488 31.0996C40.488 31.0996 40.488 31.0938 40.494 31.0811C40.701 30.5908 40.916 30.0908 41.124 29.6079C41.4 28.9698 41.684 28.3086 41.955 27.6568C42.888 25.4048 42.684 23.7491 41.35 22.7359L41.333 22.7237C40.593 22.2061 39.955 22.0181 39.383 22.147C38.927 22.25 38.556 22.5489 38.281 23.0347L38.264 23.065L36.724 26.834C36.473 27.4507 36.057 27.8867 35.452 28.166C34.642 28.5376 32.607 30.1089 31.645 31.5728C31.298 31.2246 30.819 31.0078 30.289 31.0078H29.75C29.578 25.5391 24.568 22.607 19.516 21.5821C21.479 19.6499 22.665 16.6587 22.665 13.8819C22.665 11.607 21.815 9.69192 20.207 8.34475C18.795 7.16164 16.902 6.51077 14.876 6.51077C12.85 6.51077 10.957 7.16165 9.54498 8.34475C7.93701 9.69192 7.08697 11.607 7.08697 13.8819C7.08697 16.6587 8.27301 19.6499 10.236 21.5821C5.09601 22.625 0 25.6431 0 31.2998V38.52C0 38.8169 0.24103 39.0576 0.53802 39.0576H26.227V43.3799C26.227 44.4361 27.086 45.2949 28.141 45.2949H30.289C31.046 45.2949 31.699 44.8521 32.01 44.2129C32.407 44.5279 32.908 44.7168 33.453 44.7168H39.659L40.198 44.709H41.302C42.46 44.709 43.402 43.7666 43.402 42.6079C43.402 42.2227 43.298 41.8609 43.116 41.5508C44.092 41.3697 44.834 40.5127 44.834 39.4849C44.834 38.9659 44.645 38.4898 44.332 38.1231C44.91 37.7481 45.293 37.0967 45.293 36.3589C45.293 35.7398 45.023 35.1817 44.595 34.7969C45.023 34.4126 45.293 33.855 45.293 33.2359L45.293 33.2359ZM8.164 13.8819C8.164 9.55763 11.643 7.58888 14.876 7.58888C16.649 7.58888 18.296 8.14992 19.515 9.17091C20.871 10.3067 21.587 11.936 21.587 13.8819C21.587 15.877 20.88 18.0586 19.696 19.7207C18.407 21.5288 16.696 22.544 14.876 22.5811C13.056 22.544 11.345 21.5288 10.056 19.7207C8.87201 18.0586 8.164 15.877 8.164 13.8819ZM1.07702 37.981V31.2998C1.07702 25.9859 6.33001 23.27 11.32 22.481C12.361 23.1978 13.557 23.6348 14.866 23.6577H14.876H14.886C16.195 23.6348 17.391 23.1978 18.432 22.481C23.331 23.2559 28.483 25.8867 28.672 31.0078H28.141C27.086 31.0078 26.227 31.8667 26.227 32.9229V37.981L1.07702 37.981ZM31.126 43.3809C31.126 43.8418 30.75 44.2168 30.289 44.2168H28.141C27.68 44.2168 27.304 43.8418 27.304 43.3809V32.9229C27.304 32.461 27.68 32.086 28.141 32.086H30.289C30.75 32.086 31.126 32.461 31.126 32.9229V43.3809ZM43.192 34.2588H41.353C41.055 34.2588 40.814 34.5 40.814 34.7979C40.814 35.0947 41.055 35.3369 41.353 35.3369H43.192C43.756 35.3369 44.215 35.7949 44.215 36.3589C44.215 36.9228 43.756 37.3818 43.192 37.3818H40.892C40.594 37.3818 40.353 37.623 40.353 37.9209C40.353 38.2187 40.594 38.46 40.892 38.46H42.734C43.298 38.46 43.757 38.9199 43.757 39.4849C43.757 40.0508 43.298 40.5078 42.734 40.5078H40.433C40.135 40.5078 39.894 40.749 39.894 41.0469C39.894 41.3438 40.136 41.5859 40.433 41.5859H41.302C41.866 41.5859 42.325 42.0449 42.325 42.6079C42.325 43.1719 41.866 43.6308 41.302 43.6308H39.659L39.12 43.6387H33.453C32.764 43.6387 32.203 43.0776 32.203 42.3887V32.9458C32.203 32.043 34.741 29.6777 35.903 29.145C36.756 28.751 37.368 28.1098 37.722 27.2407L39.234 23.5376C39.408 23.2456 39.568 23.2099 39.621 23.1977C39.867 23.1416 40.253 23.2847 40.707 23.6006C41.049 23.8608 42.038 24.6406 40.96 27.2436C40.692 27.8887 40.409 28.5459 40.135 29.1816C39.926 29.667 39.71 30.168 39.503 30.6587C39.351 31.0117 39.387 31.3979 39.599 31.7119C39.809 32.0288 40.148 32.21 40.53 32.21H43.192C43.756 32.21 44.215 32.6699 44.215 33.2358C44.215 33.8008 43.756 34.2588 43.192 34.2588L43.192 34.2588ZM25.208 13.958C25.056 14.625 25.159 15.3179 25.499 15.9097C25.844 16.5049 26.394 16.9409 27.047 17.1387C27.602 17.3067 27.985 17.69 28.155 18.2446C28.354 18.8989 28.789 19.4487 29.383 19.793C29.978 20.1348 30.671 20.2378 31.336 20.083C31.903 19.9497 32.426 20.0899 32.849 20.4878C33.346 20.9561 33.999 21.2129 34.686 21.2129C35.373 21.2129 36.024 20.9561 36.525 20.4878C36.948 20.0899 37.47 19.9497 38.035 20.083C38.7 20.2378 39.394 20.1348 39.99 19.792C40.586 19.4458 41.022 18.896 41.216 18.2456C41.386 17.69 41.769 17.3067 42.324 17.1387C42.978 16.9409 43.527 16.5049 43.873 15.9087C44.215 15.314 44.318 14.6196 44.162 13.9546C44.03 13.3906 44.169 12.8687 44.565 12.4448C45.034 11.9468 45.293 11.294 45.293 10.606C45.293 9.91895 45.034 9.26807 44.566 8.771C44.169 8.34571 44.03 7.82276 44.163 7.25684C44.318 6.5918 44.215 5.89795 43.872 5.30176C43.528 4.70899 42.979 4.27393 42.324 4.07569C41.769 3.90772 41.386 3.52393 41.217 2.96973C41.022 2.31494 40.585 1.76465 39.99 1.42188C39.398 1.07862 38.704 0.97559 38.036 1.13184C37.471 1.2627 36.948 1.12159 36.524 0.72461C36.022 0.25684 35.37 0 34.686 0C34.002 0 33.349 0.25684 32.85 0.72559C32.4261 1.12159 31.902 1.2627 31.336 1.13184C30.668 0.97559 29.973 1.07862 29.383 1.4209C28.79 1.76172 28.354 2.31201 28.156 2.9668C27.9861 3.52393 27.602 3.90772 27.047 4.07569C26.393 4.27393 25.843 4.70997 25.4991 5.30372C25.159 5.89405 25.0561 6.58692 25.209 7.25685C25.342 7.82277 25.202 8.34572 24.8061 8.77003C24.337 9.26808 24.079 9.92091 24.079 10.606C24.079 11.292 24.337 11.9468 24.805 12.4439C25.202 12.8687 25.342 13.3906 25.209 13.958H25.208ZM25.592 9.50685C26.237 8.81691 26.474 7.93068 26.259 7.01369C26.167 6.61183 26.229 6.19484 26.432 5.84182C26.638 5.48684 26.967 5.22561 27.36 5.10696C28.262 4.83401 28.91 4.18509 29.187 3.27981C29.306 2.88674 29.566 2.55862 29.922 2.35403C30.276 2.14895 30.691 2.08694 31.092 2.18069C32.012 2.39407 32.898 2.15579 33.586 1.51174H33.587C33.886 1.23098 34.276 1.07668 34.686 1.07668C35.096 1.07668 35.487 1.23195 35.788 1.51174C36.466 2.14699 37.375 2.39065 38.281 2.18069C38.681 2.08792 39.096 2.14895 39.451 2.35501C39.808 2.56009 40.068 2.88772 40.185 3.28079C40.461 4.18509 41.11 4.83401 42.012 5.10696C42.404 5.22561 42.734 5.48684 42.939 5.84085C43.144 6.19778 43.206 6.61282 43.113 7.01077C42.898 7.92972 43.134 8.81692 43.78 9.50784C44.061 9.80569 44.215 10.1958 44.215 10.606C44.215 11.0156 44.061 11.4087 43.779 11.708C43.143 12.3877 42.9 13.2969 43.113 14.2007C43.206 14.5987 43.144 15.0137 42.94 15.3697C42.733 15.7271 42.403 15.9888 42.012 16.1079C41.123 16.377 40.458 17.041 40.184 17.9336C40.068 18.3238 39.807 18.6529 39.451 18.8589C39.094 19.065 38.678 19.127 38.281 19.0337C37.375 18.8198 36.466 19.064 35.788 19.7017C35.489 19.981 35.097 20.1348 34.686 20.1348C34.274 20.1348 33.884 19.982 33.587 19.7027C33.064 19.211 32.427 18.9561 31.748 18.9561C31.532 18.9561 31.312 18.981 31.091 19.0327C30.693 19.126 30.277 19.065 29.922 18.8599C29.567 18.6538 29.305 18.3238 29.186 17.9297C28.914 17.041 28.248 16.377 27.36 16.1079C26.969 15.9888 26.639 15.7271 26.433 15.3706C26.229 15.0166 26.167 14.5996 26.258 14.2017C26.471 13.2969 26.228 12.3877 25.591 11.7071C25.311 11.4087 25.157 11.0181 25.157 10.606C25.157 10.1939 25.311 9.80569 25.592 9.50686L25.592 9.50685ZM34.686 16.7158C38.054 16.7158 40.794 13.9746 40.794 10.606C40.794 7.23684 38.054 4.49807 34.686 4.49807C31.318 4.49807 28.578 7.23782 28.578 10.606C28.578 13.9737 31.318 16.7158 34.686 16.7158ZM34.686 5.5757C37.46 5.5757 39.716 7.83205 39.716 10.606C39.716 13.3799 37.46 15.6387 34.686 15.6387C31.912 15.6387 29.656 13.3809 29.656 10.606C29.656 7.83107 31.912 5.5757 34.686 5.5757ZM31.924 10.4981C31.775 10.2398 31.864 9.91066 32.121 9.76173C32.379 9.61378 32.709 9.70167 32.857 9.95997L33.703 11.4268L36.6 8.52882C36.81 8.31788 37.152 8.31788 37.362 8.52784C37.573 8.73878 37.573 9.0796 37.362 9.29005L33.969 12.686C33.867 12.7876 33.73 12.8438 33.588 12.8438C33.565 12.8438 33.541 12.8428 33.518 12.8398C33.351 12.8179 33.205 12.7197 33.121 12.5747L31.924 10.498L31.924 10.4981Z" fill="black"/>
</svg>
