<svg width="46" height="46" viewBox="0 0 46 46" fill="none" xmlns="http://www.w3.org/2000/svg">
<path fill-rule="evenodd" clip-rule="evenodd" d="M5.03401 37.0767C1.77202 33.0308 -0.00498948 27.9897 1.05226e-05 22.7939C1.05226e-05 10.2046 10.206 0 22.794 0C35.383 0 45.589 10.2046 45.589 22.7939C45.589 35.3818 35.383 45.5879 22.794 45.5879C22.371 45.5879 22.028 45.2446 22.028 44.8208C22.028 44.398 22.371 44.0547 22.794 44.0547C34.537 44.0547 44.056 34.5357 44.056 22.794C44.056 11.0508 34.537 1.53175 22.794 1.53175C11.052 1.53175 1.53303 11.0508 1.53303 22.794C1.52302 27.7358 3.24403 32.5249 6.39701 36.3311V33.5147C6.39701 33.0918 6.74 32.749 7.163 32.749C7.586 32.749 7.92902 33.0918 7.92902 33.5147V38.313C7.93 38.7349 7.58802 39.0777 7.16602 39.0786C7.09501 39.0796 7.025 39.0699 6.95701 39.0508L1.22102 37.8286C0.808031 37.7407 0.544021 37.335 0.631021 36.9219C0.719001 36.5078 1.12501 36.2437 1.538 36.3321L5.03401 37.0767ZM20.489 23.5459L17.598 20.7016C17.131 20.2378 16.499 19.978 15.841 19.978C13.625 19.978 12.521 22.665 14.082 24.2256L19.917 30.0029C20.193 30.3218 20.676 30.3569 20.995 30.081C21.009 30.0679 21.023 30.0547 21.037 30.042L31.507 19.5708C31.975 19.105 32.237 18.4707 32.237 17.811C32.237 15.5976 29.55 14.4858 27.986 16.0498L20.489 23.5459ZM29.069 17.1328L21.035 25.1641C20.739 25.4609 20.258 25.4629 19.959 25.1689L16.523 21.7891C16.153 21.4097 15.546 21.4038 15.167 21.7739C14.789 22.144 14.782 22.7519 15.153 23.1299L15.165 23.1416L20.49 28.4209L30.424 18.4878C30.798 18.1138 30.798 17.5068 30.424 17.1328C30.05 16.7588 29.443 16.7588 29.069 17.1328H29.069ZM22.794 6.39599C13.738 6.39599 6.39702 13.7368 6.39702 22.7939C6.39702 31.8496 13.738 39.1909 22.794 39.1909C31.851 39.1909 39.192 31.8496 39.192 22.7939C39.192 13.7368 31.851 6.39599 22.794 6.39599ZM22.794 7.92773C14.584 7.92773 7.92903 14.584 7.92903 22.7939C7.92903 31.0039 14.584 37.6587 22.794 37.6587C31.004 37.6587 37.66 31.0039 37.66 22.7939C37.66 14.584 31.005 7.92773 22.795 7.92773H22.794Z" fill="black"/>
</svg>
