<svg width="47" height="47" viewBox="0 0 47 47" fill="none" xmlns="http://www.w3.org/2000/svg">
<g opacity="0.9">
<path fill-rule="evenodd" clip-rule="evenodd" d="M39.635 30.0171C37.106 27.489 34.096 25.6172 30.812 24.4841C34.329 22.061 36.64 18.0071 36.64 13.4221C36.64 6.021 30.619 0 23.217 0C15.816 0 9.79499 6.021 9.79499 13.4221C9.79499 18.0071 12.106 22.061 15.623 24.4841C12.339 25.6172 9.32898 27.489 6.79999 30.0171C2.41498 34.4031 0 40.2332 0 46.4351H3.62799C3.62799 35.6331 12.416 26.8452 23.217 26.8452C34.019 26.8452 42.807 35.6331 42.807 46.4351H46.435C46.435 40.2332 44.02 34.4031 39.635 30.0171H39.635ZM23.217 23.217C17.817 23.217 13.423 18.823 13.423 13.4221C13.423 8.021 17.817 3.62817 23.217 3.62817C28.618 3.62817 33.012 8.02099 33.012 13.4221C33.012 18.823 28.618 23.217 23.217 23.217Z" fill="black"/>
</g>
</svg>
