<svg width="54" height="54" viewBox="0 0 54 54" fill="none" xmlns="http://www.w3.org/2000/svg">
<path fill-rule="evenodd" clip-rule="evenodd" d="M28.152 12.616C20.826 12.9949 13.978 16.0439 8.72296 21.2991C3.09796 26.9241 0 34.377 0 42.2849V53.21L3.95801 44.0869C8.57996 34.876 17.954 28.7691 28.152 28.2009V40.791L53.159 20.365L28.152 0V12.616ZM31.268 15.6919V6.55689L48.228 20.3679L31.268 34.2219V25.041H29.71C23.801 25.041 17.999 26.7019 12.931 29.845C9.09297 32.2261 5.82197 35.364 3.31202 39.0501C4.91297 25.906 16.141 15.6919 29.71 15.6919L31.268 15.6919Z" fill="black"/>
</svg>
