<svg width="54" height="52" viewBox="0 0 54 52" fill="none" xmlns="http://www.w3.org/2000/svg">
<path fill-rule="evenodd" clip-rule="evenodd" d="M53.056 27.969C52.579 23.1689 50.434 18.6431 47.017 15.2251C44.096 12.3049 40.522 10.428 36.761 9.594V6.95606C38.297 6.573 39.439 5.18311 39.439 3.53003C39.439 1.58301 37.855 0 35.909 0H28.433C26.487 0 24.903 1.58301 24.903 3.53003C24.903 5.18311 26.045 6.573 27.581 6.95606V9.60108C23.831 10.439 20.268 12.313 17.356 15.2251C16.719 15.863 16.131 16.531 15.593 17.2261C15.567 17.2239 15.541 17.2219 15.515 17.2219H8.11597C7.54297 17.2219 7.07801 17.687 7.07801 18.26C7.07801 18.834 7.54298 19.2991 8.11597 19.2991H14.181C13.419 20.573 12.806 21.9109 12.338 23.2891H1.03796C0.46496 23.2891 0 23.7539 0 24.3279C0 24.9009 0.46497 25.366 1.03796 25.366H11.752C11.452 26.679 11.281 28.0161 11.236 29.357H6.64496C6.07196 29.357 5.607 29.8211 5.607 30.395C5.607 30.968 6.07197 31.4331 6.64496 31.4331H11.269C11.357 32.7771 11.573 34.114 11.918 35.4241H5.19098C4.61798 35.4241 4.15302 35.8889 4.15302 36.4619C4.15302 37.0359 4.61799 37.501 5.19098 37.501H12.58C13.599 40.1951 15.191 42.72 17.356 44.886C20.777 48.3069 25.308 50.4519 30.113 50.927C30.799 50.9949 31.486 51.0281 32.171 51.0281C36.223 51.0281 40.223 49.856 43.617 47.645C44.097 47.3321 44.233 46.689 43.92 46.209C43.607 45.728 42.964 45.5921 42.484 45.905C35.054 50.7429 25.104 49.697 18.825 43.418C11.457 36.0501 11.457 24.062 18.825 16.6941C26.1919 9.32594 38.181 9.32594 45.549 16.6941C51.82 22.9651 52.871 32.907 48.049 40.332C47.737 40.813 47.874 41.457 48.355 41.7691C48.836 42.0811 49.479 41.9441 49.791 41.4629C52.367 37.4961 53.527 32.7029 53.056 27.969ZM26.979 3.53004C26.979 2.72901 27.632 2.07692 28.433 2.07692H35.909C36.71 2.07692 37.362 2.72902 37.362 3.53005C37.362 4.33205 36.71 4.98391 35.909 4.98391H35.722H28.619H28.433C27.632 4.98391 26.979 4.33205 26.979 3.53005V3.53004ZM29.658 9.2439V7.06006H34.684V9.23999C33.015 9.04199 31.326 9.04297 29.658 9.2439Z" fill="black"/>
<path fill-rule="evenodd" clip-rule="evenodd" d="M46.283 43.113C46.009 43.113 45.742 43.2239 45.549 43.417C45.355 43.6101 45.245 43.8779 45.245 44.1509C45.245 44.4241 45.355 44.6919 45.549 44.885C45.742 45.0801 46.009 45.1899 46.283 45.1899C46.556 45.1899 46.823 45.0801 47.017 44.885C47.21 44.6919 47.321 44.4241 47.321 44.1509C47.321 43.8779 47.21 43.6101 47.017 43.417C46.823 43.2239 46.556 43.113 46.283 43.113Z" fill="black"/>
<path fill-rule="evenodd" clip-rule="evenodd" d="M32.1871 13.949C23.3051 13.949 16.08 21.1741 16.08 30.0559C16.08 38.937 23.3051 46.1621 32.1871 46.1621C41.0681 46.1621 48.293 38.937 48.293 30.0559C48.293 21.1741 41.0681 13.949 32.1871 13.949ZM32.1871 44.0859C24.4501 44.0859 18.157 37.792 18.157 30.0559C18.157 22.3191 24.4501 16.0249 32.1871 16.0249C39.923 16.0249 46.217 22.3191 46.217 30.0559C46.217 37.792 39.923 44.0859 32.1871 44.0859Z" fill="black"/>
<path fill-rule="evenodd" clip-rule="evenodd" d="M38.7535 22.0189L33.6115 27.1619C33.1815 26.9488 32.6975 26.8289 32.1865 26.8289C31.6745 26.8289 31.1915 26.9488 30.7605 27.1619L28.4595 24.8599C28.0535 24.4549 27.3965 24.4549 26.9915 24.8599C26.5855 25.2659 26.5855 25.9229 26.9915 26.3289L29.2925 28.6297C29.0795 29.0599 28.9595 29.5438 28.9595 30.0548C28.9595 31.8338 30.4075 33.2818 32.1865 33.2818C33.9655 33.2818 35.4125 31.8338 35.4125 30.0548C35.4125 29.5438 35.2925 29.0599 35.0795 28.6297L40.0715 23.6387L40.2225 23.4879C40.6275 23.0818 40.6275 22.4249 40.2225 22.0189C39.8164 21.6138 39.1595 21.6138 38.7535 22.0189H38.7535ZM32.1865 31.2049C31.5525 31.2049 31.0365 30.6888 31.0365 30.0557C31.0365 29.4217 31.5525 28.9058 32.1865 28.9058C32.8205 28.9058 33.3355 29.4217 33.3355 30.0557C33.3355 30.6888 32.8205 31.2049 32.1865 31.2049Z" fill="black"/>
<path fill-rule="evenodd" clip-rule="evenodd" d="M43.288 29.03H42.326C41.7521 29.03 41.288 29.4949 41.288 30.0679C41.288 30.6421 41.7521 31.106 42.326 31.106H43.288C43.861 31.106 44.326 30.6421 44.326 30.0679C44.326 29.4949 43.861 29.03 43.288 29.03Z" fill="black"/>
<path fill-rule="evenodd" clip-rule="evenodd" d="M22.047 29.0049H21.085C20.512 29.0049 20.047 29.469 20.047 30.043C20.047 30.616 20.512 31.0811 21.085 31.0811H22.047C22.621 31.0811 23.086 30.616 23.086 30.043C23.086 29.469 22.621 29.0049 22.047 29.0049Z" fill="black"/>
<path fill-rule="evenodd" clip-rule="evenodd" d="M32.199 20.9551C32.773 20.9551 33.238 20.49 33.238 19.916V18.9541C33.238 18.3811 32.773 17.916 32.199 17.916C31.626 17.916 31.161 18.3811 31.161 18.9541V19.916C31.161 20.49 31.626 20.9551 32.199 20.9551Z" fill="black"/>
<path fill-rule="evenodd" clip-rule="evenodd" d="M32.174 39.157C31.601 39.157 31.136 39.6211 31.136 40.1951V41.157C31.136 41.73 31.601 42.1951 32.174 42.1951C32.747 42.1951 33.212 41.73 33.212 41.157V40.1951C33.212 39.6211 32.747 39.157 32.174 39.157Z" fill="black"/>
<path fill-rule="evenodd" clip-rule="evenodd" d="M1.03797 35.4241C0.76502 35.4241 0.49702 35.5349 0.30396 35.728C0.11097 35.9209 0 36.189 0 36.4619C0 36.7361 0.11096 37.0029 0.30396 37.1961C0.49701 37.3889 0.76502 37.5 1.03797 37.5C1.31098 37.5 1.57899 37.3889 1.77198 37.1961C1.96497 37.0029 2.07697 36.7351 2.07697 36.4619C2.07697 36.189 1.96497 35.9209 1.77198 35.728C1.57899 35.5349 1.31098 35.4241 1.03797 35.4241Z" fill="black"/>
</svg>
