<svg width="48" height="46" viewBox="0 0 48 46" fill="none" xmlns="http://www.w3.org/2000/svg">
<path fill-rule="evenodd" clip-rule="evenodd" d="M44.7752 18.5527C43.9272 17.8146 42.8202 17.0436 42.8702 15.8046C42.9232 14.4816 43.4122 13.2067 43.5832 11.8986C43.7402 10.6928 43.6442 9.3986 42.7642 8.47477C41.9822 7.65275 40.8302 7.35758 39.7442 7.2028C38.5272 7.0297 37.1942 7.10661 36.0312 6.67668C34.9482 6.27678 34.5442 4.77263 34.1332 3.81364C33.7002 2.80168 33.2362 1.74064 32.4392 0.954754C31.5272 0.053634 30.2872 -0.189286 29.0672 0.165694C27.6752 0.570724 26.5082 1.48673 25.2342 2.14372C24.7652 2.38664 24.2142 2.66276 23.6702 2.6176C23.0352 2.56462 22.4252 2.20671 21.8832 1.9008C20.6552 1.20573 19.4412 0.304614 18.0232 0.052664C16.7962 -0.164376 15.6602 0.300714 14.8632 1.23967C14.1312 2.10271 13.7032 3.17961 13.2642 4.20964C12.8022 5.29167 12.3972 6.49065 11.1452 6.79362C9.01119 7.31169 6.02516 6.75065 4.54518 8.78361C3.79219 9.81779 3.84621 11.1547 4.05318 12.3547C4.26821 13.5988 4.81118 14.9257 4.68819 16.2006C4.5812 17.3127 3.23519 18.1618 2.47017 18.8337C1.59822 19.6008 0.681168 20.4428 0.242198 21.5456C-0.771842 24.0888 1.6222 25.9206 3.28322 27.4067C3.71517 27.7926 4.18019 28.1996 4.48421 28.6996C4.77919 29.1847 4.71517 29.7846 4.63619 30.3217C4.44417 31.6347 3.99923 32.9047 3.92617 34.2358C3.86019 35.4447 4.19021 36.6457 5.1932 37.4018C6.09823 38.0827 7.27517 38.2736 8.37319 38.3947C8.9872 38.4616 9.60317 38.5016 10.2162 38.5766C10.7842 38.6457 11.4672 38.7126 11.9442 39.0607C12.3772 39.3756 12.6342 39.9386 12.8572 40.4067C13.1402 40.9987 13.3812 41.6108 13.6482 42.2087C14.0922 43.2016 14.6222 44.2416 15.5142 44.9067C16.5962 45.7148 17.9292 45.6366 19.1272 45.1386C20.4512 44.5898 21.5772 43.6537 22.9052 43.1156C24.1532 42.6117 25.2352 43.3537 26.2942 43.9826C27.4742 44.6837 28.7572 45.5326 30.1832 45.5326C31.3862 45.5326 32.3582 44.8288 33.0212 43.8727C33.6942 42.9018 34.0872 41.7746 34.5702 40.7067C34.8052 40.1867 35.0552 39.6147 35.4592 39.2016C35.8552 38.7987 36.4892 38.6996 37.0222 38.6217C39.1462 38.3036 42.2362 38.5727 43.3202 36.2357C43.8522 35.0917 43.6452 33.7567 43.3962 32.5688C43.2612 31.9257 43.0982 31.2897 42.9822 30.6437C42.8842 30.0988 42.7512 29.4257 42.9792 28.8957C43.4012 27.9137 44.5372 27.1957 45.3092 26.5048C46.1072 25.7907 46.9202 24.9958 47.3232 23.9826C48.2352 21.6957 46.3412 19.9166 44.7752 18.5526L44.7752 18.5527ZM45.1602 22.9596C44.9372 23.8657 43.8902 24.5937 43.2232 25.1718C43.4492 24.9758 43.6402 24.8097 43.2132 25.1806C42.2592 26.0116 41.1882 26.8947 40.7312 28.1166C40.2232 29.4758 40.6062 30.9916 40.9132 32.3508C41.0892 33.1237 41.7472 34.9457 40.9022 35.5317C40.4832 35.8217 39.9132 35.8996 39.4212 35.9697C38.7422 36.0656 38.0572 36.1076 37.3752 36.1796C36.1442 36.3117 34.8292 36.5368 33.8912 37.4128C32.9582 38.2826 32.4792 39.5358 31.9892 40.6838C31.6782 41.4118 31.1252 43.2458 30.0762 43.1496C29.4952 43.0956 28.9352 42.7626 28.4372 42.4826C27.7732 42.1088 27.1322 41.6957 26.4592 41.3398C25.2072 40.6757 23.9002 40.3027 22.5062 40.7358C21.1212 41.1667 19.9592 42.0727 18.6812 42.7268C18.2722 42.9357 17.6482 43.2827 17.1702 43.1237C16.6922 42.9687 16.3932 42.3876 16.1762 41.9777C15.5662 40.8237 15.1912 39.5556 14.5012 38.4428C13.8162 37.3366 12.8472 36.6806 11.5832 36.3957C10.3062 36.1076 8.98624 36.1447 7.70419 35.8967C7.29318 35.8166 6.73422 35.7087 6.4692 35.3447C6.16921 34.9318 6.2922 34.2526 6.36318 33.7897C6.58022 32.3808 7.0812 31.0078 7.07918 29.5688C7.07717 28.1718 6.4012 27.1008 5.42818 26.1508C4.50618 25.2497 3.27516 24.4926 2.59322 23.3776C1.93721 22.3046 3.25319 21.3178 3.97219 20.6818C4.9432 19.8237 6.04818 18.9887 6.65823 17.8156C7.32223 16.5346 7.06723 15.0478 6.77322 13.7006C6.63021 13.0488 6.46518 12.3996 6.36422 11.7397C6.2922 11.2758 6.16921 10.5966 6.47018 10.1838C6.73422 9.82074 7.29422 9.71161 7.70523 9.63178C8.37021 9.50263 9.04922 9.45771 9.7222 9.39472C10.9592 9.28071 12.3102 9.14472 13.3462 8.39179C14.3722 7.64472 14.9112 6.40961 15.3952 5.27973C15.6442 4.69868 15.8812 4.11078 16.1772 3.5517C16.3932 3.14081 16.6922 2.55976 17.1702 2.40473C17.6532 2.25068 18.2682 2.59077 18.6812 2.8017C19.3572 3.14862 19.9962 3.56269 20.6562 3.93866C21.8602 4.6247 23.1762 5.2077 24.5892 4.91571C26.0002 4.62469 27.2052 3.74066 28.4372 3.04559C28.9352 2.76458 29.4952 2.4328 30.0772 2.3786C30.5992 2.33075 30.9312 2.77582 31.1792 3.17572C32.5042 5.3056 32.7912 8.19965 35.5462 9.01874C36.4962 9.30072 37.4962 9.36176 38.4772 9.45282C39.2362 9.52264 40.4742 9.51263 41.0442 10.1166C41.5682 10.6706 41.1922 11.8986 41.0572 12.5336C40.8162 13.6628 40.4882 14.7956 40.4912 15.9587C40.4942 18.2397 42.3192 19.5158 43.8502 20.9086C44.3532 21.3666 45.3552 22.1638 45.1602 22.9597L45.1602 22.9596Z" fill="black"/>
<path fill-rule="evenodd" clip-rule="evenodd" d="M31.0145 16.5374C27.9685 19.8572 24.9225 23.1773 21.8765 26.4974C21.7635 26.6192 21.7595 26.7012 21.6145 26.6163C21.1865 26.3633 20.7575 26.1104 20.3295 25.8582C19.1195 25.1453 17.9095 24.4324 16.6985 23.7183C16.2665 23.4644 15.8545 23.1954 15.3215 23.3633C14.3425 23.6693 14.2165 25.0164 15.0865 25.5294C16.0035 26.0704 16.9205 26.6104 17.8385 27.1514C18.9405 27.8004 20.0435 28.4503 21.1465 29.1004C21.8485 29.5142 22.4685 29.3682 23.0025 28.7864C24.6525 26.9893 26.3015 25.1912 27.9505 23.3934C29.2715 21.9534 30.5915 20.5142 31.9115 19.0743C32.1905 18.7713 32.4675 18.4683 32.7465 18.1653C33.7945 17.0233 32.0635 15.3934 31.0145 16.5374H31.0145Z" fill="black"/>
</svg>
