<svg width="46" height="46" viewBox="0 0 46 46" fill="none" xmlns="http://www.w3.org/2000/svg">
<path fill-rule="evenodd" clip-rule="evenodd" d="M18.0241 28.458H6.64106C6.11701 28.458 5.69202 28.033 5.69202 27.51C5.69202 26.9861 6.11701 26.561 6.64106 26.561H18.0241C18.5471 26.561 18.9721 26.9861 18.9721 27.51C18.9721 28.033 18.5471 28.458 18.0241 28.458Z" fill="black"/>
<path fill-rule="evenodd" clip-rule="evenodd" d="M16.127 34.1501H6.64106C6.11701 34.1501 5.69202 33.7251 5.69202 33.2009C5.69202 32.678 6.11701 32.2529 6.64106 32.2529H16.127C16.65 32.2529 17.075 32.678 17.075 33.2009C17.075 33.7251 16.65 34.1501 16.127 34.1501Z" fill="black"/>
<path fill-rule="evenodd" clip-rule="evenodd" d="M16.127 13.2808C14.034 13.2808 12.332 11.5789 12.332 9.48584C12.332 7.3938 14.034 5.69189 16.127 5.69189C18.219 5.69189 19.921 7.39379 19.921 9.48584C19.921 11.5789 18.219 13.2808 16.127 13.2808ZM16.127 7.58886C15.081 7.58886 14.2289 8.44067 14.2289 9.48583C14.2289 10.5317 15.081 11.3828 16.127 11.3828C17.172 11.3828 18.024 10.5317 18.024 9.48583C18.024 8.44066 17.172 7.58886 16.127 7.58886Z" fill="black"/>
<path fill-rule="evenodd" clip-rule="evenodd" d="M22.767 22.7671C22.243 22.7671 21.8181 22.342 21.8181 21.8181V19.9211C21.8181 18.352 20.541 17.0749 18.9721 17.0749H13.281C11.712 17.0749 10.4351 18.352 10.4351 19.9211V21.8181C10.4351 22.342 10.01 22.7671 9.48602 22.7671C8.96301 22.7671 8.53802 22.342 8.53802 21.8181V19.9211C8.53802 17.3061 10.666 15.178 13.281 15.178H18.972C21.587 15.178 23.715 17.3061 23.715 19.9211V21.8181C23.715 22.342 23.29 22.7671 22.767 22.7671H22.767Z" fill="black"/>
<path fill-rule="evenodd" clip-rule="evenodd" d="M18.024 39.8411H4.74298C2.12897 39.8411 0 37.7131 0 35.0981V4.74292C0 2.12915 2.12897 0 4.74298 0H27.51C30.124 0 32.253 2.12915 32.253 4.74292V16.24C32.253 16.7639 31.8279 17.189 31.3039 17.189C30.7809 17.189 30.3559 16.7639 30.3559 16.24V4.74292C30.3559 3.17407 29.079 1.89697 27.5099 1.89697H4.74297C3.17394 1.89697 1.89794 3.17407 1.89794 4.74292V35.0981C1.89794 36.667 3.17394 37.9441 4.74297 37.9441H18.024C18.547 37.9441 18.972 38.3691 18.972 38.8931C18.972 39.416 18.547 39.8411 18.024 39.8411H18.024Z" fill="black"/>
<path fill-rule="evenodd" clip-rule="evenodd" d="M33.201 45.5327C26.402 45.5327 20.87 40.0007 20.87 33.2007C20.87 26.4019 26.402 20.8689 33.201 20.8689C40.001 20.8689 45.533 26.4019 45.533 33.2007C45.533 40.0007 40.001 45.5327 33.201 45.5327ZM33.201 22.7668C27.447 22.7668 22.767 27.4468 22.767 33.2007C22.767 38.9548 27.447 43.6357 33.201 43.6357C38.956 43.6357 43.636 38.9548 43.636 33.2007C43.636 27.4468 38.956 22.7668 33.201 22.7668Z" fill="black"/>
<path fill-rule="evenodd" clip-rule="evenodd" d="M31.3035 37.9443C31.0535 37.9443 30.8105 37.8442 30.6325 37.6672L26.8375 33.8732C26.4675 33.5031 26.4675 32.9013 26.8375 32.5312C27.2075 32.1613 27.8095 32.1613 28.1785 32.5312L31.2565 35.6093L37.2285 28.7831C37.5735 28.3862 38.1735 28.3461 38.5685 28.6933C38.9625 29.0392 39.0025 29.6381 38.6575 30.0331L32.0175 37.6222C31.8445 37.8193 31.5955 37.9372 31.3345 37.9443H31.3035Z" fill="black"/>
</svg>
