<svg width="48" height="46" viewBox="0 0 48 46" fill="none" xmlns="http://www.w3.org/2000/svg">
<path fill-rule="evenodd" clip-rule="evenodd" d="M19.597 9.40699H31.8701C32.429 9.40699 32.881 8.95411 32.881 8.396C32.881 7.83716 32.429 7.38501 31.8701 7.38501H19.597C19.038 7.38501 18.586 7.83716 18.586 8.396C18.586 8.95411 19.038 9.40699 19.597 9.40699Z" fill="black"/>
<path fill-rule="evenodd" clip-rule="evenodd" d="M19.597 18.186H31.8701C32.429 18.186 32.881 17.7332 32.881 17.1751C32.881 16.6172 32.429 16.1641 31.8701 16.1641H19.597C19.038 16.1641 18.586 16.6172 18.586 17.1751C18.586 17.7332 19.038 18.186 19.597 18.186Z" fill="black"/>
<path fill-rule="evenodd" clip-rule="evenodd" d="M14.8384 5.77212L11.4764 8.95913L10.0854 7.58511C9.68844 7.19229 9.04842 7.19619 8.65542 7.59317C8.26339 7.99112 8.26742 8.63126 8.66439 9.02335L10.7504 11.0851C11.2174 11.4692 11.6864 11.4743 12.1564 11.1003L16.2294 7.24015C16.6344 6.85612 16.6524 6.21622 16.2674 5.81119C15.8834 5.40518 15.2434 5.38834 14.8384 5.77213V5.77212Z" fill="black"/>
<path fill-rule="evenodd" clip-rule="evenodd" d="M14.8384 15.0343L11.4764 18.2201L10.0854 16.8473C9.68844 16.4542 9.04842 16.4581 8.65542 16.8551C8.26339 17.2521 8.26742 17.8922 8.66439 18.2853L10.7504 20.3463C11.2174 20.7311 11.6864 20.7352 12.1564 20.3612L16.2294 16.5021C16.6344 16.1183 16.6524 15.4782 16.2684 15.0731C15.8834 14.6671 15.2434 14.6503 14.8384 15.0343H14.8384Z" fill="black"/>
<path fill-rule="evenodd" clip-rule="evenodd" d="M14.8384 23.8126L11.4764 26.9997L10.0854 25.6256C9.68844 25.2328 9.04842 25.2367 8.65542 25.6347C8.26339 26.0316 8.26742 26.6718 8.66439 27.0636L10.7504 29.1256C11.2174 29.5097 11.6864 29.5148 12.1564 29.1398L16.2294 25.2807C16.6344 24.8966 16.6524 24.2567 16.2684 23.8517C15.8834 23.4467 15.2434 23.4286 14.8384 23.8126H14.8384Z" fill="black"/>
<path fill-rule="evenodd" clip-rule="evenodd" d="M47.317 28.2481C47.317 27.6902 46.864 27.2371 46.306 27.2371C45.7481 27.2371 45.2951 27.6902 45.2951 28.2481C45.2951 32.1321 42.1021 35.293 38.177 35.293C34.252 35.293 31.0581 32.1321 31.0581 28.2481C31.0581 24.363 34.252 21.2031 38.177 21.2031C39.896 21.2031 41.53 21.8162 42.8051 22.896L41.868 22.9031C41.31 22.907 40.861 23.363 40.8651 23.9221C40.869 24.4771 41.321 24.9251 41.876 24.9251H41.884L44.9561 24.9011C45.507 24.897 45.9541 24.4512 45.9591 23.9001L45.988 20.823C45.994 20.2642 45.5451 19.8071 44.987 19.802H44.9771C44.423 19.802 43.9721 20.248 43.966 20.803L43.962 21.229C42.5111 20.052 40.718 19.335 38.815 19.2041V3.03296C38.815 1.36109 37.455 0 35.7821 0H6.78803C5.11805 0 3.758 1.35815 3.75501 3.02808L3.69605 36.7271H1.01105C0.45203 36.7271 0 37.1802 0 37.738V40.8801C0 43.446 2.09003 45.533 4.66003 45.533H33.912C36.503 45.533 38.815 43.5461 38.815 40.842V37.292C43.559 36.9661 47.317 33.0342 47.317 28.248L47.317 28.2481ZM2.02205 40.8801V38.749H29.7171C29.6211 40.312 29.612 42.1712 30.5241 43.511H4.66006C3.20504 43.511 2.02206 42.3311 2.02206 40.8801H2.02205ZM34.1181 43.511C32.9021 43.511 31.739 42.0042 31.739 40.9102V37.738C31.739 37.1802 31.286 36.7271 30.728 36.7271H30.726H5.71803L5.77705 3.03101C5.77803 2.4751 6.23207 2.02198 6.78804 2.02198H35.7821C36.34 2.02198 36.793 2.47608 36.793 3.03297V19.2852C33.5351 19.7781 30.8371 21.9832 29.6651 24.9431H19.541C18.9831 24.9431 18.5301 25.396 18.5301 25.9541C18.5301 26.5132 18.9831 26.9661 19.541 26.9661H29.1281C29.0681 27.385 29.036 27.813 29.036 28.2481C29.036 32.781 32.4071 36.5481 36.7931 37.2112V40.843C36.7931 42.314 35.593 43.511 34.1181 43.511L34.1181 43.511Z" fill="black"/>
<path fill-rule="evenodd" clip-rule="evenodd" d="M38.177 23.5359C37.618 23.5359 37.166 23.9888 37.166 24.5469V28.2578C37.166 28.5269 37.273 28.7839 37.462 28.9739L39.946 31.4529C40.423 31.8469 40.9 31.8459 41.376 31.4509C41.771 31.0559 41.77 30.4158 41.375 30.0207L39.188 27.8389V24.5469C39.188 23.9888 38.735 23.5359 38.177 23.5359H38.177Z" fill="black"/>
</svg>
